<svg width="154" height="40" viewBox="0 0 154 40" fill="none" xmlns="http://www.w3.org/2000/svg">
<path d="M31.5045 34.7975C28.8103 35.0889 28.3003 36.947 28.9439 38.2099C31.1647 37.1048 33.1667 35.6354 34.8902 33.8867C34.6721 33.6802 34.3323 34.4939 31.5045 34.7975Z" fill="black"/>
<path d="M5.72816 30.6687C6.54134 27.912 7.30599 26.1147 8.76212 24.5724C9.84191 24.8273 10.5946 25.046 11.068 25.5924C10.9463 24.4509 11.0561 21.84 14.0654 21.6335C14.0169 20.0548 14.7449 18.3182 16.6991 17.0552C19.6599 15.1486 19.9152 13.3877 19.9877 13.3512C20.1579 12.3311 19.4904 14.7599 23.3495 16.7516C25.5097 17.8688 26.3954 19.9819 26.42 21.5728C27.3788 21.7306 29.6601 22.4836 28.9925 25.556C29.9879 25.1309 31.2252 24.6209 32.5723 25.0095C33.4826 27.4869 33.4101 27.9606 33.325 30.8508C33.7379 29.94 34.6482 29.4178 34.9514 29.2114C35.5943 29.855 36.0917 30.7051 36.468 31.6766C38.7014 28.4463 40 24.5359 40 20.3098C40 9.25871 31.0437 0.296387 19.9996 0.296387C8.95626 0.296387 0 9.25871 0 20.3098C0 24.2444 1.12833 27.8998 3.0825 30.9966C3.26469 30.3894 3.50738 29.7214 3.87106 28.9806C5.12108 29.7579 5.09717 30.0493 5.72816 30.6687Z" fill="#FBB342"/>
<path d="M25.8494 39.0238C27.0748 37.5058 26.9053 34.737 23.3613 33.7169C21.2257 33.1097 20.461 32.2839 20.1698 31.7617C20.1332 31.6767 20.0966 31.5917 20.0481 31.5067C19.9637 31.2759 20.0481 32.709 16.6019 33.7533C13.2402 34.7734 12.9609 37.518 14.0534 39.0238C14.1624 39.1574 14.4536 39.4003 14.709 39.5704C14.8546 39.6068 15.0002 39.6432 15.1331 39.6796C15.0241 39.3274 15.0973 37.9552 16.189 37.2508C17.33 36.5222 18.8593 35.6599 19.8786 34.5063C20.9098 35.7814 22.7669 36.5465 24.0409 37.3358C25.1572 38.028 24.9145 39.3274 24.745 39.7039C24.8787 39.6675 25.0116 39.631 25.1579 39.6068C25.4245 39.4246 25.7277 39.1574 25.8494 39.0238Z" fill="black"/>
<path d="M23.2039 31.6765C23.2771 31.9073 23.5317 32.648 23.6168 32.5508C23.5683 32.3809 23.932 31.4336 24.8788 31.0328C25.704 30.6807 26.7479 30.3528 27.6335 29.7577C27.9247 30.8143 28.5438 31.7615 28.9567 32.5873C29.4175 33.4981 29.1023 34.4575 28.9567 34.5667C28.944 34.7003 29.6236 34.2874 29.8304 34.166C30.9467 33.3766 31.6502 31.2636 29.976 29.5148C29.1867 28.6891 28.8955 28.0211 28.8111 27.5353C28.7745 27.3289 28.8111 27.1711 28.7865 26.8917C28.8111 26.746 28.7745 27.7175 26.0684 28.0333C23.6527 28.2761 22.8402 30.3528 23.2039 31.6765Z" fill="black"/>
<path d="M17.5966 28.422C17.8519 28.5798 18.701 29.0655 18.701 28.9198C18.5188 28.7984 17.2695 26.8554 18.3493 25.6288C18.9803 24.9123 19.6964 24.4144 20.1452 23.6493C20.7157 24.6087 21.4071 24.888 21.9291 25.6531C22.8154 26.9403 21.5774 28.7134 21.3952 28.8348C21.3952 28.9805 22.342 28.3855 22.5967 28.2276C23.9923 27.2682 25.3274 25.0216 22.973 23.2243C19.8174 20.8197 20.1937 18.6217 20.0115 19.3503C19.8174 20.1275 19.7329 20.3583 19.0534 21.3055C18.4829 22.0949 18.0334 22.4592 17.1239 23.2243C14.8419 25.1066 16.189 27.4869 17.5966 28.422Z" fill="black"/>
<path d="M8.61642 34.8827C5.32711 34.5305 4.70809 33.1825 5.12101 33.7654C5.14492 33.7897 5.09639 33.8383 5.08443 33.899C6.83178 35.6842 8.87107 37.1658 11.1284 38.283C11.7714 37.0201 11.286 35.1741 8.61642 34.8827Z" fill="black"/>
<path d="M10.3272 34.0568C10.534 34.1783 11.2255 34.5669 11.2135 34.4333C11.0679 34.3361 10.7155 33.3889 11.1404 32.4659C11.5167 31.6523 12.0872 30.7051 12.3419 29.6728C13.2641 30.2679 14.3565 30.5594 15.2182 30.8994C16.177 31.2637 16.5653 32.1988 16.5288 32.3688C16.6139 32.4781 16.8446 31.7252 16.9051 31.4823C17.2083 30.1464 16.3346 28.1063 13.9197 27.9119C12.7787 27.8269 12.1238 27.5112 11.7355 27.2076C11.5772 27.0861 11.4928 26.9282 11.2986 26.7461C11.2135 26.6246 11.8445 27.3655 10.024 29.4056C8.39763 31.2272 9.17424 33.3039 10.3272 34.0568Z" fill="black"/>
<path fill-rule="evenodd" clip-rule="evenodd" d="M118.632 18.0415C115.976 18.0415 114.133 20.3272 114.133 23.0525C114.133 25.6215 115.976 27.9756 118.612 27.9853C119.984 27.9853 121.336 27.243 122.062 26.061V27.7607C122.062 29.7729 120.543 30.7399 118.759 30.7399C117.367 30.7399 116.074 30.1734 115.309 29.0403L114.359 29.8706C115.27 31.1893 116.564 32 118.759 32C121.503 32 123.698 30.4957 123.698 27.7607V18.2076H122.248V20.1319C121.434 18.9304 120.249 18.0415 118.632 18.0415ZM118.965 19.4481C120.239 19.4481 121.542 20.3858 122.062 21.7045V24.4786C121.807 25.5726 120.484 26.6471 119.112 26.6471C117.26 26.6471 115.79 25.0159 115.79 23.0916C115.79 21.2943 116.995 19.4481 118.965 19.4481ZM126.334 18.2076V24C126.334 26.6667 127.393 28.0537 129.421 28.044C131.087 28.044 132.597 27.2332 133.449 25.7875C133.459 27.4676 134.184 27.8681 134.792 27.8974C135.38 27.9267 135.664 27.8095 135.664 27.8095L135.497 26.4127C135.027 26.4127 134.86 26.2759 134.86 25.8657V18.2076H133.224V24.2637C132.646 25.7387 131.362 26.6471 130.029 26.6471C128.657 26.6471 127.971 25.6703 127.971 23.6874V18.2076H126.334ZM144.67 24V18.2076H146.307V23.6874C146.307 25.6703 146.993 26.6471 148.365 26.6471C149.698 26.6471 150.981 25.7387 151.56 24.2637V18.2076H153.196V25.8657C153.196 26.2759 153.363 26.4127 153.833 26.4127L154 27.8095C154 27.8095 153.716 27.9267 153.128 27.8974C152.52 27.8681 151.795 27.4676 151.785 25.7875C150.932 27.2332 149.423 28.044 147.757 28.044C145.728 28.0537 144.67 26.6667 144.67 24ZM139.202 21.9096C139.721 20.503 141.054 19.6728 142.69 19.6337V18.1489C142.563 18.1294 142.396 18.1294 142.151 18.1294H142.151C140.926 18.1294 139.75 19.116 139.084 20.4444V18.2076H137.565V27.8681H139.202V21.9096Z" fill="black"/>
<path fill-rule="evenodd" clip-rule="evenodd" d="M73.6785 27.7021C73.6785 27.7021 72.9729 27.9267 72.3653 27.9463C71.1795 27.9756 70.1701 27.3211 70.1701 25.9243V19.4286H68.8471V18.149H70.1701V16H71.8067V18.149H73.9824V19.4286H71.7969V25.4261C71.8361 26.1294 72.3163 26.4518 72.8945 26.442C72.9631 26.442 73.2277 26.3932 73.4139 26.2857L73.6785 27.7021ZM62.9568 18.0317C60.0364 18.0317 57.998 20.3077 57.998 23.033C57.998 25.7582 60.0266 28.0537 62.9372 28.044C64.8875 28.044 66.5437 27.0281 67.1709 25.602L65.7597 25.2112C65.3579 26.1783 64.1819 26.823 62.996 26.823C61.3104 26.823 59.8796 25.4847 59.7326 23.58H67.7687C67.7883 23.4725 67.8079 23.2186 67.8079 22.9548C67.8079 20.3663 65.8871 18.0317 62.9568 18.0317ZM62.9666 19.2625C64.6915 19.2625 66.1027 20.5421 66.2693 22.3883H59.7032C59.8306 20.5617 61.2418 19.2625 62.9666 19.2625ZM53.6366 21.9097C54.156 20.5031 55.4889 19.6728 57.1255 19.6337V18.149C56.9981 18.1294 56.8315 18.1294 56.5865 18.1294H56.5865C55.3614 18.1294 54.1854 19.116 53.519 20.4445V18.2076H52V27.8681H53.6366V21.9097ZM107.077 27.9463C107.685 27.9267 108.391 27.7021 108.391 27.7021L108.136 26.2857C107.95 26.3932 107.685 26.442 107.616 26.442C107.038 26.4518 106.558 26.1294 106.519 25.4261V19.4286H108.694V18.149H106.519V16H104.882V18.149H103.559V19.4286H104.882V25.9243C104.882 27.3211 105.892 27.9756 107.077 27.9463ZM81.3514 19.6337C79.7148 19.6728 78.3819 20.5031 77.8625 21.9097V27.8681H76.2259V18.2076H77.7449V20.4445C78.4113 19.116 79.5873 18.1294 80.8124 18.1294H80.8124C81.0574 18.1294 81.224 18.1294 81.3514 18.149V19.6337ZM86.996 18.0317C84.0755 18.0317 82.0371 20.3077 82.0371 23.033C82.0371 25.7582 84.0559 28.0537 86.9764 28.044C88.9266 28.044 90.5828 27.0281 91.21 25.602L89.7988 25.2112C89.397 26.1783 88.221 26.823 87.0352 26.823C85.3496 26.823 83.9187 25.4847 83.7717 23.58H91.8078C91.8274 23.4725 91.847 23.2186 91.847 22.9548C91.847 20.3663 89.9262 18.0317 86.996 18.0317ZM86.996 19.2625C88.7208 19.2625 90.132 20.5421 90.2986 22.3883H83.7325C83.8599 20.5617 85.2712 19.2625 86.996 19.2625ZM93.4938 25.0842C93.4938 23.2479 95.1794 22.0464 97.5804 22.0464C98.5311 22.0464 99.5503 22.232 100.295 22.525V21.7436C100.295 20.1709 99.3445 19.2039 97.7372 19.2039C96.7376 19.2039 95.7184 19.5946 94.6502 20.337L94.1112 19.282C95.3558 18.4518 96.5808 18.022 97.9136 18.022C100.383 18.022 101.922 19.4676 101.922 21.9096V25.8559C101.922 26.4614 102.232 26.4566 102.496 26.4524C102.517 26.4521 102.538 26.4518 102.559 26.4518L102.892 27.7998C102.892 27.7998 102.402 27.9853 101.775 27.9365C100.854 27.8584 100.491 27.0183 100.52 26.3053C100.52 26.2662 100.511 26.2662 100.511 26.2662C99.6385 27.4286 98.1488 28.044 96.8356 28.044C94.8854 28.0537 93.4938 26.735 93.4938 25.0842ZM99.9325 25.6801C100.177 25.4066 100.285 25.1233 100.285 24.9182V23.4921C99.5209 23.199 98.6291 23.033 97.8352 23.033C96.1594 23.033 95.052 23.7753 95.052 24.9377C95.052 25.9341 95.8654 26.823 97.2472 26.823C98.286 26.8327 99.3739 26.3248 99.9325 25.6801ZM112.575 26.7546C112.575 27.3696 112.075 27.8681 111.458 27.8681C110.841 27.8681 110.341 27.3696 110.341 26.7546C110.341 26.1396 110.841 25.641 111.458 25.641C112.075 25.641 112.575 26.1396 112.575 26.7546Z" fill="black"/>
</svg>
